<svg width="32" height="32" viewBox="0 0 32 32" fill="none" xmlns="http://www.w3.org/2000/svg">
<path d="M12.1147 2.72669C12.1147 1.77307 11.3476 1 10.4012 1C9.45482 1 8.68763 1.77307 8.68763 2.72669C8.68763 3.68031 9.45482 4.45338 10.4012 4.45338C11.3476 4.45338 12.1147 3.68031 12.1147 2.72669Z" fill="#4CEC8C"/>
<path d="M5.73056 16.834H3.86825V1.7854H2V18.7166H5.73056V28.1174H3.86825V20.8809H2V30H7.59881V1.7854H5.73056V16.834Z" fill="white"/>
<path d="M11.3353 5.40066H9.46706V14.9574H11.3353V5.40066Z" fill="white"/>
<path d="M15.0659 3.66798H16.9341V14.9514H18.7964V1.7854H13.1976V14.9514H15.0659V3.66798Z" fill="white"/>
<path d="M20.6647 22.4757H18.7964V16.834H16.9341V28.1174H11.4722L15.8632 16.834H9.46706V18.7166H13.1262L8.73523 30H18.7964V24.3583H20.6647V30H22.5329V1.7854H20.6647V22.4757Z" fill="white"/>
<path d="M28.1317 1.7854V28.1174H26.2635V1.7854H24.4012V30H30V1.7854H28.1317Z" fill="white"/>
</svg>
