<svg width="32" height="32" viewBox="0 0 32 32" fill="none" xmlns="http://www.w3.org/2000/svg">
<rect width="32" height="32" fill="#151515"/>
<path d="M12.6698 4.48853C12.6698 3.66644 12.0122 3 11.201 3C10.3898 3 9.73226 3.66644 9.73226 4.48853C9.73226 5.31062 10.3898 5.97705 11.201 5.97705C12.0122 5.97705 12.6698 5.31062 12.6698 4.48853Z" fill="#4CEC8C"/>
<path d="M7.19762 16.65H5.60136V3.67707H4V18.2729H7.19762V26.3771H5.60136V20.1387H4V28H8.79898V3.67707H7.19762V16.65Z" fill="white"/>
<path d="M12.0017 6.79367H10.4003V15.0323H12.0017V6.79367Z" fill="white"/>
<path d="M15.1993 5.29998H16.8007V15.0271H18.3969V3.67707H13.598V15.0271H15.1993V5.29998Z" fill="white"/>
<path d="M19.9983 21.5135H18.3969V16.65H16.8007V26.3771H12.119L15.8827 16.65H10.4003V18.2729H13.5368L9.77306 28H18.3969V23.1364H19.9983V28H21.5997V3.67707H19.9983V21.5135Z" fill="white"/>
<path d="M26.3986 3.67707V26.3771H24.7973V3.67707H23.201V28H28V3.67707H26.3986Z" fill="white"/>
</svg>
