<svg width="48" height="47" viewBox="0 0 48 47" fill="none" xmlns="http://www.w3.org/2000/svg">
<rect width="48" height="47" rx="8" fill="#001E36"/>
<path d="M10.8008 32.9606V12.2926C10.8008 12.152 10.8608 12.0717 11.0008 12.0717C11.3408 12.0717 11.6608 12.0717 12.1208 12.0516C12.6008 12.0315 13.1008 12.0315 13.6408 12.0114C14.1808 11.9913 14.7608 11.9913 15.3808 11.9713C16.0008 11.9512 16.6008 11.9512 17.2008 11.9512C18.8408 11.9512 20.2008 12.152 21.3208 12.5738C22.3208 12.9153 23.2408 13.4777 24.0008 14.2208C24.6408 14.8636 25.1408 15.6469 25.4608 16.5106C25.7608 17.3542 25.9208 18.2178 25.9208 19.1217C25.9208 20.849 25.5208 22.2751 24.7208 23.3999C23.9208 24.5247 22.8008 25.3683 21.5008 25.8503C20.1408 26.3525 18.6408 26.5332 17.0008 26.5332C16.5208 26.5332 16.2008 26.5332 16.0008 26.5131C15.8008 26.4931 15.5208 26.4931 15.1408 26.4931V32.9405C15.1608 33.0811 15.0608 33.2016 14.9208 33.2217C14.9008 33.2217 14.8808 33.2217 14.8408 33.2217H11.0408C10.8808 33.2217 10.8008 33.1413 10.8008 32.9606ZM15.1608 15.9482V22.6969C15.4408 22.717 15.7008 22.7371 15.9408 22.7371H17.0008C17.7808 22.7371 18.5608 22.6166 19.3008 22.3755C19.9408 22.1948 20.5008 21.8131 20.9408 21.311C21.3608 20.8089 21.5608 20.126 21.5608 19.2422C21.5808 18.6195 21.4208 17.9969 21.1008 17.4546C20.7608 16.9324 20.2808 16.5307 19.7008 16.3097C18.9608 16.0084 18.1608 15.8879 17.3408 15.908C16.8208 15.908 16.3608 15.908 15.9808 15.9281C15.5808 15.908 15.3008 15.9281 15.1608 15.9482Z" fill="#31A8FF"/>
<path d="M38.4008 21.4717C37.8008 21.1503 37.1608 20.9294 36.4808 20.7888C35.7408 20.6281 35.0008 20.5277 34.2408 20.5277C33.8408 20.5076 33.4208 20.5678 33.0408 20.6683C32.7808 20.7285 32.5608 20.8691 32.4208 21.07C32.3208 21.2307 32.2608 21.4315 32.2608 21.6123C32.2608 21.7931 32.3408 21.9738 32.4608 22.1345C32.6408 22.3554 32.8808 22.5362 33.1408 22.6768C33.6008 22.9178 34.0808 23.1388 34.5608 23.3396C35.6408 23.7012 36.6808 24.2033 37.6408 24.8059C38.3008 25.2277 38.8408 25.7901 39.2208 26.473C39.5408 27.1157 39.7008 27.8187 39.6808 28.5418C39.7008 29.4858 39.4208 30.4298 38.9008 31.2131C38.3408 32.0166 37.5608 32.6392 36.6608 33.0007C35.6808 33.4225 34.4808 33.6435 33.0408 33.6435C32.1208 33.6435 31.2208 33.5631 30.3208 33.3824C29.6208 33.2619 28.9208 33.0409 28.2808 32.7396C28.1408 32.6593 28.0408 32.5187 28.0608 32.358V28.8631C28.0608 28.8029 28.0808 28.7225 28.1408 28.6824C28.2008 28.6422 28.2608 28.6623 28.3208 28.7025C29.1008 29.1644 29.9208 29.4858 30.8008 29.6866C31.5608 29.8875 32.3608 29.9879 33.1608 29.9879C33.9208 29.9879 34.4608 29.8875 34.8208 29.7067C35.1408 29.5661 35.3608 29.2247 35.3608 28.8631C35.3608 28.5819 35.2008 28.3208 34.8808 28.0597C34.5608 27.7986 33.9008 27.4973 32.9208 27.1157C31.9008 26.7542 30.9608 26.2721 30.0808 25.6695C29.4608 25.2277 28.9408 24.6452 28.5608 23.9623C28.2408 23.3195 28.0808 22.6166 28.1008 21.9136C28.1008 21.0499 28.3408 20.2264 28.7808 19.4832C29.2808 18.6798 30.0208 18.0371 30.8808 17.6354C31.8208 17.1533 33.0008 16.9324 34.4208 16.9324C35.2408 16.9324 36.0808 16.9926 36.9008 17.1131C37.5008 17.1935 38.0808 17.3542 38.6208 17.5751C38.7008 17.5952 38.7808 17.6755 38.8208 17.7559C38.8408 17.8362 38.8608 17.9166 38.8608 17.9969V21.2708C38.8608 21.3512 38.8208 21.4315 38.7608 21.4717C38.5808 21.5119 38.4808 21.5119 38.4008 21.4717Z" fill="#31A8FF"/>
</svg>
