<svg width="48" height="47" viewBox="0 0 48 47" fill="none" xmlns="http://www.w3.org/2000/svg">
<rect width="48" height="47" rx="8" fill="#330000"/>
<path d="M23.1993 28.1201H15.7593L14.2393 32.8402C14.1993 33.021 14.0393 33.1415 13.8593 33.1214H10.0993C9.87933 33.1214 9.81933 33.0009 9.87933 32.7599L16.3193 14.1406C16.3793 13.9398 16.4393 13.7188 16.5193 13.4778C16.5993 13.056 16.6393 12.6141 16.6393 12.1722C16.6193 12.0718 16.6993 11.9714 16.7993 11.9513H21.9793C22.1393 11.9513 22.2193 12.0116 22.2393 12.112L29.5393 32.8C29.5993 33.021 29.5393 33.1214 29.3393 33.1214H25.1593C25.0193 33.1415 24.8793 33.041 24.8393 32.9004L23.1993 28.1201ZM16.9193 24.0428H21.9993C21.8793 23.621 21.7193 23.1188 21.5393 22.5966C21.3593 22.0543 21.1793 21.4718 20.9993 20.8693C20.7993 20.2466 20.6193 19.644 20.4193 19.0214C20.2193 18.3987 20.0393 17.8163 19.8793 17.2338C19.7193 16.6714 19.5793 16.1492 19.4393 15.6671H19.3993C19.2193 16.5308 18.9993 17.3945 18.7193 18.2581C18.4193 19.2222 18.1193 20.2265 17.7993 21.2308C17.5193 22.2551 17.2193 23.1992 16.9193 24.0428ZM33.9993 15.4663C33.3393 15.4863 32.6993 15.2252 32.2193 14.7633C31.7593 14.2611 31.5193 13.5983 31.5393 12.9154C31.5193 12.2325 31.7793 11.5898 32.2593 11.1278C32.7393 10.6658 33.3793 10.4248 34.0393 10.4248C34.8193 10.4248 35.4193 10.6658 35.8593 11.1278C36.2993 11.6098 36.5393 12.2526 36.5193 12.9154C36.5393 13.5983 36.2993 14.2611 35.8193 14.7633C35.3593 15.2453 34.6793 15.5064 33.9993 15.4663ZM31.7593 32.9004V17.4346C31.7593 17.2338 31.8393 17.1534 32.0193 17.1534H35.9793C36.1593 17.1534 36.2393 17.2539 36.2393 17.4346V32.9004C36.2393 33.1214 36.1593 33.2218 35.9793 33.2218H32.0593C31.8593 33.2218 31.7593 33.1013 31.7593 32.9004Z" fill="#FF9A00"/>
</svg>
