<svg width="192" height="41" viewBox="0 0 192 41" fill="none" xmlns="http://www.w3.org/2000/svg">
<g clip-path="url(#clip0_2226_7342)">
<path d="M55.5685 8.16406L46.8984 29.9548H50.7477L52.4598 25.5937H61.6452L63.3279 29.9548H67.2676L58.6142 8.16406H55.5685ZM53.7952 22.1141L57.0535 13.7714L60.2821 22.1141H53.7952Z" fill="#1E61F0"/>
<path d="M86.9718 14.4248C85.93 14.4248 84.9714 14.6656 84.0922 15.1471C83.2131 15.6286 82.561 16.2804 82.1363 17.0989C81.2367 15.3156 79.6704 14.4248 77.4374 14.4248C76.5378 14.4248 75.6716 14.6193 74.8385 15.0101C74.0056 15.4008 73.3313 16.0267 72.816 16.8859V14.7434H69.375V29.9546H72.816V21.4286C72.816 20.2138 73.1467 19.2971 73.808 18.6786C74.4691 18.0601 75.2652 17.7508 76.1942 17.7508C77.2249 17.7508 78.0376 18.0767 78.6343 18.7304C79.2308 19.3842 79.5282 20.2823 79.5282 21.4267V29.9527H82.9988V21.4267C82.9988 20.2119 83.3275 19.2952 83.9832 18.6767C84.6407 18.0582 85.4387 17.7489 86.3788 17.7489C87.3984 17.7489 88.2018 18.0749 88.7892 18.7286C89.3748 19.3823 89.6684 20.2804 89.6684 21.4249V29.9508H93.1852V20.6508C93.1852 18.7563 92.6126 17.2434 91.4656 16.1138C90.3186 14.9897 88.8206 14.4248 86.9718 14.4248Z" fill="#1E61F0"/>
<path d="M109.06 15.4878C107.953 14.7786 106.738 14.4248 105.414 14.4248C104.202 14.4248 103.134 14.6878 102.216 15.2156C101.296 15.7434 100.558 16.4971 100.004 17.4804V14.7452H96.5625V35.2748H100.004V27.2212C100.559 28.1934 101.296 28.9434 102.216 29.4693C103.136 29.9971 104.202 30.2601 105.414 30.2601C107.425 30.2601 109.132 29.4916 110.537 27.9582C111.941 26.4231 112.643 24.5563 112.643 22.3582C112.643 20.9193 112.321 19.5934 111.681 18.3767C111.04 17.1601 110.166 16.1971 109.06 15.4878ZM107.914 25.6156C107.026 26.5119 105.94 26.9601 104.656 26.9601C103.323 26.9601 102.213 26.5193 101.33 25.6378C100.445 24.7563 100.004 23.6619 100.004 22.3546C100.004 21.0267 100.445 19.9231 101.33 19.0416C102.214 18.1601 103.323 17.7193 104.656 17.7193C105.94 17.7193 107.026 18.1674 107.914 19.0638C108.805 19.9601 109.248 21.0563 109.248 22.3546C109.25 23.6342 108.805 24.7193 107.914 25.6156Z" fill="#1E61F0"/>
<path d="M118.816 8.16406H115.375V29.9548H118.816V8.16406Z" fill="#1E61F0"/>
<path d="M125.598 14.7441H122.156V29.9553H125.598V14.7441Z" fill="#1E61F0"/>
<path d="M123.9 7.67676C123.294 7.67676 122.774 7.89528 122.339 8.33047C121.905 8.76565 121.688 9.28232 121.688 9.88047C121.688 10.499 121.904 11.0249 122.339 11.4619C122.774 11.8971 123.294 12.1156 123.9 12.1156C124.506 12.1156 125.031 11.8971 125.471 11.4619C125.91 11.0268 126.13 10.499 126.13 9.88047C126.13 9.28232 125.91 8.76565 125.471 8.33047C125.029 7.89528 124.506 7.67676 123.9 7.67676Z" fill="#1E61F0"/>
<path d="M134.147 10.6572H130.677V14.7442H127.797V18.0424H130.677V24.2276C130.677 26.1221 131.181 27.5814 132.193 28.6035C133.203 29.6276 134.563 30.1387 136.27 30.1387C136.977 30.1387 137.599 30.0776 138.132 29.9554V26.7499C137.821 26.8314 137.445 26.8721 137.012 26.8721C136.121 26.8721 135.423 26.6517 134.913 26.211C134.403 25.7702 134.147 25.0887 134.147 24.1665V18.0424H138.132V14.7442H134.147V10.6572Z" fill="#1E61F0"/>
<path d="M151.408 22.9813C151.408 24.1756 151.069 25.133 150.385 25.8534C149.704 26.572 148.803 26.933 147.679 26.933C146.567 26.933 145.673 26.5738 144.995 25.8534C144.318 25.1349 143.98 24.1775 143.98 22.9813V14.7441H140.539V23.3905C140.539 25.5275 141.1 27.2071 142.221 28.4275C143.343 29.6479 144.883 30.259 146.844 30.259C147.845 30.259 148.734 30.0256 149.512 29.559C150.289 29.0941 150.921 28.4256 151.407 27.5534V29.9553H154.877V14.7441H151.407L151.408 22.9813Z" fill="#1E61F0"/>
<path d="M170.164 17.4178C169.608 16.4548 168.876 15.7159 167.966 15.1992C167.057 14.6826 166.001 14.4252 164.798 14.4252C163.474 14.4252 162.257 14.7752 161.146 15.4733C160.034 16.1714 159.155 17.1288 158.509 18.3456C157.862 19.5622 157.539 20.8882 157.539 22.3271C157.539 23.7659 157.862 25.0956 158.509 26.3159C159.155 27.5363 160.034 28.4992 161.146 29.2029C162.258 29.9067 163.475 30.2586 164.798 30.2586C166.001 30.2586 167.057 30.0029 167.966 29.4899C168.875 28.9789 169.608 28.2418 170.164 27.2788V29.9529H173.651V8.16406H170.164V17.4178ZM168.84 25.6326C167.954 26.5196 166.855 26.9622 165.542 26.9622C164.259 26.9622 163.172 26.5141 162.284 25.6178C161.394 24.7214 160.95 23.6252 160.95 22.3271C160.95 21.0511 161.395 19.9641 162.284 19.0678C163.172 18.1714 164.259 17.7233 165.542 17.7233C166.855 17.7233 167.954 18.1641 168.84 19.0456C169.724 19.9271 170.165 21.0214 170.165 22.3288C170.164 23.6437 169.722 24.7456 168.84 25.6326Z" fill="#1E61F0"/>
<path d="M191.487 22.0231C191.487 20.5748 191.152 19.2656 190.485 18.0952C189.818 16.9248 188.921 16.0212 187.794 15.3823C186.668 14.7434 185.426 14.4248 184.072 14.4248C182.637 14.4248 181.322 14.7693 180.124 15.4582C178.927 16.1471 177.981 17.0916 177.289 18.2916C176.595 19.4916 176.25 20.8174 176.25 22.2656C176.25 23.7546 176.595 25.1119 177.289 26.3378C177.981 27.5638 178.928 28.5231 180.131 29.2174C181.333 29.9119 182.667 30.2582 184.133 30.2582C186.002 30.2582 187.593 29.7712 188.908 28.7989C190.221 27.8267 191.019 26.5397 191.303 24.9397H187.832C187.681 25.5878 187.27 26.1156 186.597 26.5193C185.925 26.9248 185.126 27.1267 184.194 27.1267C182.992 27.1267 182.008 26.8027 181.24 26.1546C180.47 25.5063 179.975 24.6156 179.753 23.4804H191.394C191.457 23.2082 191.487 22.7212 191.487 22.0231ZM179.847 20.5174C180.1 19.5842 180.577 18.8601 181.287 18.3434C181.995 17.8267 182.857 17.5674 183.879 17.5674C184.909 17.5674 185.77 17.8397 186.462 18.3804C187.155 18.9231 187.577 19.6342 187.728 20.5156H179.847V20.5174Z" fill="#1E61F0"/>
<path d="M17.5848 9.9565C17.4721 9.81206 17.352 9.73242 17.2079 9.73242C17.1045 9.73983 17.0084 9.77316 16.9198 9.82872C15.8541 10.6639 14.4042 14.2064 13.2109 18.8806L14.2693 18.8879C16.3528 18.9121 18.5064 18.9361 20.6305 18.9676C20.0691 16.8306 19.5408 14.9991 19.0531 13.5139C18.3383 11.3546 17.8581 10.3824 17.5848 9.9565Z" fill="#1E61F0"/>
<path d="M19.9481 0.953125C8.93229 0.953125 0 9.90868 0 20.9531C0 31.9976 8.93229 40.9531 19.9481 40.9531C30.9639 40.9531 39.8961 31.9976 39.8961 20.9531C39.8961 9.90868 30.9639 0.953125 19.9481 0.953125ZM34.6727 20.7124C34.6172 20.9365 34.4806 21.155 34.2885 21.3143C34.2645 21.3309 34.2405 21.3458 34.2164 21.3624L34.1925 21.379L34.1445 21.4105L34.1038 21.4346C33.9523 21.5142 33.7824 21.555 33.6069 21.555H24.1537C24.2258 21.868 24.3144 22.229 24.4012 22.6161C24.9221 24.8569 26.2927 30.8161 27.7573 30.8161H27.7888H27.8053H27.8368C28.9745 30.8161 29.56 29.1624 30.8419 25.5382L30.8585 25.4976C31.0672 24.9197 31.3 24.2605 31.5475 23.5624L31.6121 23.3865C31.7082 23.1531 31.9722 23.0327 32.205 23.129C32.3731 23.1939 32.4931 23.3624 32.4931 23.5476C32.4931 23.5957 32.4858 23.6365 32.4766 23.6754L32.4211 23.8512C32.2844 24.2846 32.1497 24.8716 31.9797 25.555C31.2187 28.7197 30.0643 33.4994 27.1164 33.4994H27.0924C25.1863 33.4827 24.0485 30.4309 23.559 29.1216C22.6465 26.679 21.9576 24.0846 21.2927 21.5642H12.6098L10.807 27.355L10.783 27.3309C10.5115 27.7569 9.94262 27.8846 9.5178 27.6124C9.25368 27.4439 9.09298 27.155 9.09298 26.842V26.8105L9.20565 26.1513C9.45316 24.6661 9.75791 23.1143 10.0941 21.5569H6.40923L6.39261 21.5401C5.63901 21.4272 5.11815 20.7216 5.23082 19.9661C5.31948 19.379 5.76832 18.9142 6.34459 18.8086C6.48865 18.792 6.63273 18.7846 6.77679 18.792H6.95226C8.11406 18.8086 9.34788 18.8328 10.7091 18.8476C12.6245 11.0402 14.8428 7.07164 17.3104 7.06424C19.9535 7.06424 21.917 13.0957 23.487 18.9994L23.4943 19.0235C26.7156 19.0882 30.1603 19.1846 33.4998 19.4254L33.6439 19.442C33.6992 19.442 33.7472 19.4494 33.8046 19.4586H33.8212L33.8378 19.4661H33.8452C34.4159 19.579 34.7928 20.142 34.6727 20.7124Z" fill="#1E61F0"/>
</g>
<defs>
<clipPath id="clip0_2226_7342">
<rect width="192" height="40" fill="white" transform="translate(0 0.953125)"/>
</clipPath>
</defs>
</svg>
