<svg width="40" height="41" viewBox="0 0 40 41" fill="none" xmlns="http://www.w3.org/2000/svg">
<mask id="mask0_2226_7217" style="mask-type:alpha" maskUnits="userSpaceOnUse" x="0" y="0" width="40" height="41">
<rect y="0.975098" width="40" height="40" fill="#D9D9D9"/>
</mask>
<g mask="url(#mask0_2226_7217)">
<path d="M12.4974 28.4749H22.4974V26.8083H12.4974V28.4749ZM12.4974 21.8083H27.4974V20.1416H12.4974V21.8083ZM12.4974 15.1416H27.4974V13.4749H12.4974V15.1416ZM9.35656 34.3083C8.58934 34.3083 7.94878 34.0513 7.4349 33.5374C6.92101 33.0235 6.66406 32.383 6.66406 31.6158V10.3341C6.66406 9.56688 6.92101 8.92632 7.4349 8.41243C7.94878 7.89855 8.58934 7.6416 9.35656 7.6416H30.6382C31.4055 7.6416 32.046 7.89855 32.5599 8.41243C33.0738 8.92632 33.3307 9.56688 33.3307 10.3341V31.6158C33.3307 32.383 33.0738 33.0235 32.5599 33.5374C32.046 34.0513 31.4055 34.3083 30.6382 34.3083H9.35656ZM9.35656 32.6416H30.6382C30.8949 32.6416 31.13 32.5348 31.3436 32.3212C31.5573 32.1076 31.6641 31.8724 31.6641 31.6158V10.3341C31.6641 10.0774 31.5573 9.8423 31.3436 9.62869C31.13 9.41507 30.8949 9.30827 30.6382 9.30827H9.35656C9.0999 9.30827 8.86476 9.41507 8.65115 9.62869C8.43753 9.8423 8.33073 10.0774 8.33073 10.3341V31.6158C8.33073 31.8724 8.43753 32.1076 8.65115 32.3212C8.86476 32.5348 9.0999 32.6416 9.35656 32.6416Z" fill="#4CEC8C"/>
</g>
</svg>
