<svg width="48" height="48" viewBox="0 0 48 48" fill="none" xmlns="http://www.w3.org/2000/svg">
<rect width="48" height="48" rx="8" fill="#353535"/>
<path d="M13.5 35.25C13.5 32.3505 15.8506 30 18.7501 30H24V35.25C24 38.1495 21.6497 40.5 18.7501 40.5C15.8506 40.5 13.5 38.1495 13.5 35.25Z" fill="#24CB71"/>
<path d="M24 9V19.5H29.25C32.1495 19.5 34.5 17.1497 34.5 14.2501C34.5 11.3506 32.1495 9 29.25 9H24Z" fill="#FF7237"/>
<path d="M29.25 30C32.1495 30 34.5 27.6495 34.5 24.75C34.5 21.8505 32.1495 19.5 29.25 19.5C26.3505 19.5 24 21.8505 24 24.75C24 27.6495 26.3505 30 29.25 30Z" fill="#00B6FF"/>
<path d="M13.5 14.25C13.5 17.1495 15.8506 19.5 18.7501 19.5H24V9H18.7501C15.8506 9 13.5 11.3505 13.5 14.25Z" fill="#FF3737"/>
<path d="M13.5 24.7499C13.5 27.6494 15.8506 30 18.7501 30H24V19.5H18.7501C15.8506 19.5 13.5 21.8503 13.5 24.7499Z" fill="#874FFF"/>
</svg>
