<svg width="24" height="25" viewBox="0 0 24 25" fill="none" xmlns="http://www.w3.org/2000/svg">
<path d="M12 2.95312C10.6868 2.95312 9.38642 3.21178 8.17317 3.71433C6.95991 4.21688 5.85752 4.95347 4.92893 5.88206C3.05357 7.75742 2 10.301 2 12.9531C2 17.3731 4.87 21.1231 8.84 22.4531C9.34 22.5331 9.5 22.2231 9.5 21.9531C9.5 21.7231 9.5 21.0931 9.5 20.2631C6.73 20.8631 6.14 18.9231 6.14 18.9231C5.68 17.7631 5.03 17.4531 5.03 17.4531C4.12 16.8331 5.1 16.8531 5.1 16.8531C6.1 16.9231 6.63 17.8831 6.63 17.8831C7.5 19.4031 8.97 18.9531 9.54 18.7131C9.63 18.0631 9.89 17.6231 10.17 17.3731C7.95 17.1231 5.62 16.2631 5.62 12.4531C5.62 11.3431 6 10.4531 6.65 9.74312C6.55 9.49312 6.2 8.45312 6.75 7.10313C6.75 7.10313 7.59 6.83313 9.5 8.12313C10.29 7.90313 11.15 7.79313 12 7.79313C12.85 7.79313 13.71 7.90313 14.5 8.12313C16.41 6.83313 17.25 7.10313 17.25 7.10313C17.8 8.45312 17.45 9.49312 17.35 9.74312C18 10.4531 18.38 11.3431 18.38 12.4531C18.38 16.2731 16.04 17.1131 13.81 17.3631C14.17 17.6731 14.5 18.2831 14.5 19.2131C14.5 20.5531 14.5 21.6331 14.5 21.9531C14.5 22.2231 14.66 22.5431 15.17 22.4531C19.14 21.1131 22 17.3731 22 12.9531C22 11.6399 21.7413 10.3395 21.2388 9.12629C20.7362 7.91303 19.9997 6.81064 19.0711 5.88206C18.1425 4.95347 17.0401 4.21688 15.8268 3.71433C14.6136 3.21178 13.3132 2.95313 12 2.95312Z" fill="black"/>
</svg>
