<svg width="32" height="33" viewBox="0 0 32 33" fill="none" xmlns="http://www.w3.org/2000/svg">
<path d="M15.9974 3.03662C14.2464 3.03662 12.5126 3.3815 10.8949 4.05156C9.27728 4.72162 7.80742 5.70375 6.56931 6.94186C4.06882 9.44235 2.66406 12.8337 2.66406 16.37C2.66406 22.2633 6.49073 27.2633 11.7841 29.0366C12.4507 29.1433 12.6641 28.73 12.6641 28.37C12.6641 28.0633 12.6641 27.2233 12.6641 26.1166C8.97073 26.9166 8.18406 24.33 8.18406 24.33C7.57073 22.7833 6.70406 22.37 6.70406 22.37C5.49073 21.5433 6.7974 21.57 6.7974 21.57C8.13073 21.6633 8.8374 22.9433 8.8374 22.9433C9.9974 24.97 11.9574 24.37 12.7174 24.05C12.8374 23.1833 13.1841 22.5966 13.5574 22.2633C10.5974 21.93 7.49073 20.7833 7.49073 15.7033C7.49073 14.2233 7.9974 13.0366 8.86406 12.09C8.73073 11.7566 8.26406 10.37 8.9974 8.56995C8.9974 8.56995 10.1174 8.20995 12.6641 9.92995C13.7174 9.63662 14.8641 9.48995 15.9974 9.48995C17.1307 9.48995 18.2774 9.63662 19.3307 9.92995C21.8774 8.20995 22.9974 8.56995 22.9974 8.56995C23.7307 10.37 23.2641 11.7566 23.1307 12.09C23.9974 13.0366 24.5041 14.2233 24.5041 15.7033C24.5041 20.7966 21.3841 21.9166 18.4107 22.25C18.8907 22.6633 19.3307 23.4766 19.3307 24.7166C19.3307 26.5033 19.3307 27.9433 19.3307 28.37C19.3307 28.73 19.5441 29.1566 20.2241 29.0366C25.5174 27.25 29.3307 22.2633 29.3307 16.37C29.3307 14.619 28.9859 12.8852 28.3158 11.2675C27.6457 9.64983 26.6636 8.17998 25.4255 6.94186C24.1874 5.70375 22.7175 4.72162 21.0998 4.05156C19.4822 3.3815 17.7484 3.03662 15.9974 3.03662V3.03662Z" fill="white"/>
</svg>
