<svg width="312" height="41" viewBox="0 0 312 41" fill="none" xmlns="http://www.w3.org/2000/svg">
<g clip-path="url(#clip0_2226_7355)">
<path d="M27.1123 6.99381V34.4938C27.1123 37.5709 29.2375 39.2855 31.492 39.2855C33.5775 39.2855 35.8717 37.8272 35.8717 34.4938V7.20215C35.8717 4.38131 33.7861 2.61882 31.492 2.61882C29.1979 2.61882 27.1123 4.56256 27.1123 6.99381Z" fill="#F9AB00"/>
<path d="M15.6417 20.9521V34.4938C15.6417 37.5709 17.7669 39.2855 20.0214 39.2855C22.107 39.2855 24.4011 37.8272 24.4011 34.4938V21.1605C24.4011 18.3396 22.3155 16.5771 20.0214 16.5771C17.7273 16.5771 15.6417 18.5209 15.6417 20.9521Z" fill="#E37400"/>
<path d="M8.5508 39.2855C10.9696 39.2855 12.9305 37.3267 12.9305 34.9105C12.9305 32.4942 10.9696 30.5355 8.5508 30.5355C6.13197 30.5355 4.17112 32.4942 4.17112 34.9105C4.17112 37.3267 6.13197 39.2855 8.5508 39.2855Z" fill="#E37400"/>
<path d="M61.2813 32.7325C53.3697 32.7325 46.7166 26.3474 46.7166 18.509C46.7166 10.6706 53.3697 4.28548 61.2813 4.28548C65.6579 4.28548 68.7761 5.985 71.1167 8.20866L68.3512 10.9485C66.6679 9.38403 64.3994 8.1769 61.2813 8.1769C55.5019 8.1769 50.989 12.791 50.989 18.5169C50.989 24.2429 55.5099 28.857 61.2813 28.857C65.0247 28.857 67.1649 27.364 68.5276 26.0139C69.6498 24.902 70.3873 23.3058 70.6598 21.1218H61.2813V17.2383H74.4833C74.6276 17.9293 74.6917 18.7631 74.6917 19.6685C74.6917 22.5831 73.8821 26.1886 71.293 28.7538C68.7761 31.3427 65.5537 32.7325 61.2813 32.7325ZM95.108 23.5758C95.108 28.8491 91.0199 32.7325 86.002 32.7325C80.9841 32.7325 76.8961 28.8491 76.8961 23.5758C76.8961 18.2708 80.9841 14.419 86.002 14.419C91.0199 14.419 95.108 18.2628 95.108 23.5758ZM91.1161 23.5758C91.1161 20.28 88.7434 18.0246 85.994 18.0246C83.2446 18.0246 80.8719 20.28 80.8719 23.5758C80.8719 26.8398 83.2446 29.127 85.994 29.127C88.7434 29.127 91.1161 26.8319 91.1161 23.5758ZM115.524 23.5758C115.524 28.8491 111.436 32.7325 106.418 32.7325C101.4 32.7325 97.3123 28.8491 97.3123 23.5758C97.3123 18.2708 101.4 14.419 106.418 14.419C111.436 14.419 115.524 18.2628 115.524 23.5758ZM111.54 23.5758C111.54 20.28 109.168 18.0246 106.418 18.0246C103.669 18.0246 101.296 20.28 101.296 23.5758C101.296 26.8398 103.669 29.127 106.418 29.127C109.168 29.127 111.54 26.8319 111.54 23.5758ZM135.436 14.975V31.4142C135.436 38.1805 131.412 40.9521 126.65 40.9521C122.169 40.9521 119.476 37.9661 118.458 35.5439L121.993 34.0906C122.626 35.5836 124.165 37.3466 126.65 37.3466C129.696 37.3466 131.588 35.4724 131.588 31.9701V30.6518H131.444C130.53 31.7636 128.782 32.7325 126.578 32.7325C121.961 32.7325 117.721 28.7458 117.721 23.6076C117.721 18.4375 121.953 14.419 126.578 14.419C128.782 14.419 130.53 15.3879 131.444 16.468H131.588V14.975H135.436ZM131.868 23.6076C131.868 20.3832 129.696 18.0246 126.931 18.0246C124.133 18.0246 121.785 20.3832 121.785 23.6076C121.785 26.8001 124.133 29.1191 126.931 29.1191C129.696 29.127 131.868 26.8001 131.868 23.6076ZM142.554 5.26231V32.1766H138.49V5.26231H142.554ZM158.521 26.5936L161.671 28.6743C160.653 30.1674 158.208 32.7325 153.968 32.7325C148.718 32.7325 144.926 28.7061 144.926 23.5758C144.926 18.1278 148.75 14.419 153.511 14.419C158.305 14.419 160.653 18.1993 161.423 20.2482L161.84 21.2886L149.479 26.3554C150.425 28.1899 151.892 29.127 153.96 29.127C156.036 29.127 157.471 28.1184 158.521 26.5936ZM148.822 23.2978L157.086 19.8988C156.629 18.7552 155.267 17.9531 153.655 17.9531C151.587 17.9531 148.718 19.7558 148.822 23.2978Z" fill="white"/>
<path d="M185.556 27.362H175.475L173.541 32.6187H171.195L179.279 10.7687H181.783L189.835 32.6187H187.489L185.556 27.362ZM184.89 25.5253L180.515 13.5553L176.141 25.5253H184.89Z" fill="white"/>
<path d="M201.512 15.012C203.583 15.012 205.274 15.6559 206.584 16.9437C207.894 18.2103 208.549 20.0576 208.549 22.4853V32.6187H206.362V22.7387C206.362 20.8598 205.887 19.4242 204.936 18.432C204.006 17.4398 202.727 16.9437 201.1 16.9437C199.43 16.9437 198.099 17.4715 197.105 18.527C196.112 19.5826 195.616 21.1342 195.616 23.182V32.6187H193.397V15.3287H195.616V18.2737C196.165 17.2181 196.958 16.4159 197.993 15.867C199.029 15.297 200.202 15.012 201.512 15.012Z" fill="white"/>
<path d="M212.443 23.942C212.443 22.1687 212.791 20.617 213.489 19.287C214.207 17.9359 215.19 16.9015 216.437 16.1837C217.705 15.4448 219.131 15.0753 220.716 15.0753C222.365 15.0753 223.781 15.4553 224.964 16.2153C226.169 16.9753 227.035 17.9465 227.564 19.1287V15.3287H229.783V32.6187H227.564V28.787C227.014 29.9692 226.137 30.9509 224.933 31.732C223.749 32.492 222.333 32.872 220.685 32.872C219.121 32.872 217.705 32.5026 216.437 31.7637C215.19 31.0248 214.207 29.9798 213.489 28.6287C212.791 27.2776 212.443 25.7153 212.443 23.942ZM227.564 23.9737C227.564 22.5803 227.278 21.3559 226.708 20.3003C226.137 19.2448 225.355 18.432 224.362 17.862C223.39 17.292 222.312 17.007 221.129 17.007C219.903 17.007 218.804 17.2814 217.832 17.8303C216.86 18.3792 216.088 19.1814 215.518 20.237C214.968 21.2715 214.693 22.5065 214.693 23.942C214.693 25.3565 214.968 26.602 215.518 27.6787C216.088 28.7342 216.86 29.547 217.832 30.117C218.804 30.6659 219.903 30.9403 221.129 30.9403C222.312 30.9403 223.39 30.6553 224.362 30.0853C225.355 29.5153 226.137 28.7026 226.708 27.647C227.278 26.5914 227.564 25.367 227.564 23.9737Z" fill="white"/>
<path d="M237.068 9.18534V32.6187H234.849V9.18534H237.068Z" fill="white"/>
<path d="M256.358 15.3287L246.087 40.757H243.773L247.133 32.5237L240.032 15.3287H242.473L248.369 30.0853L254.076 15.3287H256.358Z" fill="white"/>
<path d="M262.252 17.197V27.932C262.252 28.9876 262.453 29.7159 262.854 30.117C263.256 30.5181 263.964 30.7187 264.978 30.7187H267.007V32.6187H264.629C263.065 32.6187 261.903 32.2598 261.142 31.542C260.382 30.8031 260.001 29.5998 260.001 27.932V17.197H257.592V15.3287H260.001V10.9903H262.252V15.3287H267.007V17.197H262.252Z" fill="white"/>
<path d="M271.776 12.067C271.332 12.067 270.952 11.9087 270.635 11.592C270.318 11.2753 270.159 10.8848 270.159 10.4203C270.159 9.95589 270.318 9.57589 270.635 9.28034C270.952 8.96367 271.332 8.80534 271.776 8.80534C272.22 8.80534 272.6 8.96367 272.917 9.28034C273.234 9.57589 273.393 9.95589 273.393 10.4203C273.393 10.8848 273.234 11.2753 272.917 11.592C272.6 11.9087 272.22 12.067 271.776 12.067ZM272.886 15.3287V32.6187H270.667V15.3287H272.886Z" fill="white"/>
<path d="M276.896 23.9737C276.896 22.1792 277.256 20.617 277.974 19.287C278.693 17.9359 279.686 16.9015 280.954 16.1837C282.222 15.4448 283.67 15.0753 285.297 15.0753C287.431 15.0753 289.185 15.6031 290.559 16.6587C291.954 17.7142 292.852 19.1498 293.254 20.9653H290.876C290.58 19.7198 289.936 18.7487 288.942 18.052C287.97 17.3342 286.755 16.9753 285.297 16.9753C284.135 16.9753 283.088 17.2392 282.159 17.767C281.229 18.2948 280.489 19.0865 279.939 20.142C279.411 21.1765 279.147 22.4537 279.147 23.9737C279.147 25.4937 279.411 26.7815 279.939 27.837C280.489 28.8926 281.229 29.6842 282.159 30.212C283.088 30.7398 284.135 31.0037 285.297 31.0037C286.755 31.0037 287.97 30.6553 288.942 29.9587C289.936 29.2409 290.58 28.2487 290.876 26.982H293.254C292.852 28.7553 291.954 30.1803 290.559 31.257C289.164 32.3337 287.41 32.872 285.297 32.872C283.67 32.872 282.222 32.5131 280.954 31.7953C279.686 31.0565 278.693 30.022 277.974 28.692C277.256 27.3409 276.896 25.7681 276.896 23.9737Z" fill="white"/>
<path d="M303.312 32.872C301.325 32.872 299.698 32.4181 298.43 31.5103C297.183 30.5815 296.486 29.3253 296.338 27.742H298.62C298.726 28.7131 299.18 29.5048 299.983 30.117C300.807 30.7081 301.906 31.0037 303.28 31.0037C304.485 31.0037 305.425 30.7187 306.101 30.1487C306.799 29.5787 307.147 28.8715 307.147 28.027C307.147 27.4359 306.957 26.9503 306.577 26.5703C306.196 26.1903 305.71 25.8948 305.119 25.6837C304.548 25.4515 303.766 25.2087 302.773 24.9553C301.484 24.6176 300.438 24.2798 299.634 23.942C298.831 23.6042 298.145 23.1081 297.574 22.4537C297.024 21.7781 296.75 20.8809 296.75 19.762C296.75 18.9176 297.003 18.1365 297.51 17.4187C298.018 16.7009 298.736 16.1309 299.666 15.7087C300.596 15.2864 301.653 15.0753 302.836 15.0753C304.696 15.0753 306.196 15.5503 307.338 16.5003C308.479 17.4292 309.092 18.717 309.176 20.3637H306.957C306.894 19.3503 306.492 18.5376 305.753 17.9253C305.034 17.292 304.041 16.9753 302.773 16.9753C301.653 16.9753 300.744 17.2392 300.047 17.767C299.349 18.2948 299 18.9492 299 19.7303C299 20.4059 299.201 20.9653 299.603 21.4087C300.025 21.8309 300.543 22.1687 301.156 22.422C301.769 22.6542 302.593 22.9181 303.629 23.2137C304.876 23.5515 305.869 23.8787 306.609 24.1953C307.348 24.512 307.982 24.9764 308.511 25.5887C309.039 26.2009 309.314 27.0137 309.335 28.027C309.335 28.9559 309.081 29.7898 308.574 30.5287C308.067 31.2465 307.359 31.8165 306.45 32.2387C305.541 32.6609 304.495 32.872 303.312 32.872Z" fill="white"/>
</g>
<defs>
<clipPath id="clip0_2226_7355">
<rect width="312" height="40" fill="white" transform="translate(0 0.953125)"/>
</clipPath>
</defs>
</svg>
