<svg width="32" height="33" viewBox="0 0 32 33" fill="none" xmlns="http://www.w3.org/2000/svg">
<path d="M25.3333 4.37012C26.0406 4.37012 26.7189 4.65107 27.219 5.15117C27.719 5.65126 28 6.32954 28 7.03678V25.7035C28 26.4107 27.719 27.089 27.219 27.5891C26.7189 28.0892 26.0406 28.3701 25.3333 28.3701H6.66667C5.95942 28.3701 5.28115 28.0892 4.78105 27.5891C4.28095 27.089 4 26.4107 4 25.7035V7.03678C4 6.32954 4.28095 5.65126 4.78105 5.15117C5.28115 4.65107 5.95942 4.37012 6.66667 4.37012H25.3333ZM24.6667 25.0368V17.9701C24.6667 16.8173 24.2087 15.7117 23.3936 14.8966C22.5784 14.0814 21.4728 13.6235 20.32 13.6235C19.1867 13.6235 17.8667 14.3168 17.2267 15.3568V13.8768H13.5067V25.0368H17.2267V18.4635C17.2267 17.4368 18.0533 16.5968 19.08 16.5968C19.5751 16.5968 20.0499 16.7935 20.3999 17.1435C20.75 17.4936 20.9467 17.9684 20.9467 18.4635V25.0368H24.6667ZM9.17333 11.7835C9.76742 11.7835 10.3372 11.5475 10.7573 11.1274C11.1773 10.7073 11.4133 10.1375 11.4133 9.54345C11.4133 8.30345 10.4133 7.29012 9.17333 7.29012C8.57571 7.29012 8.00257 7.52752 7.57999 7.9501C7.1574 8.37269 6.92 8.94583 6.92 9.54345C6.92 10.7835 7.93333 11.7835 9.17333 11.7835ZM11.0267 25.0368V13.8768H7.33333V25.0368H11.0267Z" fill="white"/>
</svg>
