<svg width="40" height="41" viewBox="0 0 40 41" fill="none" xmlns="http://www.w3.org/2000/svg">
<mask id="mask0_2226_11974" style="mask-type:alpha" maskUnits="userSpaceOnUse" x="0" y="0" width="40" height="41">
<rect y="0.953125" width="40" height="40" fill="#D9D9D9"/>
</mask>
<g mask="url(#mask0_2226_11974)">
<path d="M5.83594 35.1202V32.9727L7.5026 31.306V35.1202H5.83594ZM12.5026 35.1202V26.306L14.1693 24.6393V35.1202H12.5026ZM19.1693 35.1202V24.6393L20.8359 26.3477V35.1202H19.1693ZM25.8359 35.1202V26.3477L27.5026 24.681V35.1202H25.8359ZM32.5026 35.1202V19.6393L34.1693 17.9727V35.1202H32.5026ZM5.83594 25.3093V22.9727L16.6693 12.1393L23.3359 18.806L34.1693 7.97266V10.3093L23.3359 21.1427L16.6693 14.476L5.83594 25.3093Z" fill="#4CEC8C"/>
</g>
</svg>
