<svg width="239" height="41" viewBox="0 0 239 41" fill="none" xmlns="http://www.w3.org/2000/svg">
<g clip-path="url(#clip0_2226_7367)">
<path d="M29.9434 20.9531L4.40086 5.98364V35.9226L29.9434 20.9531ZM33.4289 17.8587C34.5272 18.494 35.2048 19.6746 35.2048 20.9531C35.2048 22.2316 34.5272 23.4123 33.4289 24.0475L5.42626 40.4619C3.13781 41.8046 0 40.2707 0 37.3675V4.53871C0 1.63551 3.13781 0.101658 5.42626 1.44433L33.4289 17.8587Z" fill="#394EFF"/>
<path d="M18.3595 20.1283C18.6557 20.2977 18.8385 20.6125 18.8385 20.9535C18.8385 21.2944 18.6557 21.6092 18.3595 21.7786L10.8072 26.1558C10.19 26.5138 9.34375 26.1048 9.34375 25.3306V16.5763C9.34375 15.8021 10.19 15.3931 10.8072 15.7511L18.3595 20.1283Z" fill="#3EAAAF"/>
<path d="M80.1492 12.6442C81.5852 12.6442 82.9045 12.9668 84.1072 13.6119C85.3098 14.257 86.2702 15.2904 86.9882 16.7121C87.7062 18.1338 88.0652 20.0154 88.0652 22.3569C88.0652 24.6507 87.6733 26.5771 86.8895 28.1361C86.1056 29.6952 84.9419 30.8719 83.3981 31.6664C81.8544 32.4608 79.9457 32.8581 77.672 32.8581C77.2292 32.8581 76.7835 32.8402 76.3347 32.8043C75.886 32.7685 75.4701 32.7267 75.0872 32.6789V40.3845H70.3663V12.9489H74.3512L74.6384 15.0634H74.8718L75.0946 14.7969C75.6319 14.1906 76.2906 13.6941 77.0707 13.3073C77.9622 12.8653 78.9884 12.6442 80.1492 12.6442ZM183.23 12.6405C184.666 12.6405 185.986 12.9631 187.188 13.6082C188.391 14.2533 189.351 15.2867 190.069 16.7084C190.787 18.13 191.146 20.0116 191.146 22.3532C191.146 24.647 190.754 26.5734 189.97 28.1324C189.187 29.6915 188.023 30.8682 186.479 31.6627C184.935 32.4571 183.027 32.8543 180.753 32.8543C180.31 32.8543 179.864 32.8364 179.416 32.8006C178.967 32.7647 178.551 32.7229 178.168 32.6751V40.3808H173.447V12.9451H177.432L177.719 15.0597H177.953L178.176 14.7932C178.713 14.1869 179.372 13.6903 180.152 13.3035C181.043 12.8615 182.069 12.6405 183.23 12.6405ZM222.808 12.9451L227.978 28.4173L233.273 12.9451H237.94L228.013 40.3808H223.364L226.236 32.4959H224.926L217.871 12.9451H222.808ZM98.5771 12.6442C100.336 12.6442 101.823 13.0235 103.038 13.7822C104.252 14.5408 105.171 15.6787 105.793 17.1959C106.415 18.7132 106.727 20.6007 106.727 22.8587V24.131L94.6243 24.131L94.6268 24.185C94.6825 25.281 94.8774 26.1799 95.2115 26.8817C95.6124 27.724 96.2616 28.3273 97.1591 28.6917C98.0566 29.056 99.2592 29.2382 100.767 29.2382C101.521 29.2382 102.311 29.1785 103.137 29.059C103.962 28.9396 104.812 28.7723 105.685 28.5573V32.1592L105.088 32.3011C104.301 32.4789 103.545 32.6108 102.822 32.6968C101.919 32.8043 101.018 32.8581 100.121 32.8581C97.8113 32.8581 95.8996 32.5086 94.3857 31.8098C92.8719 31.1109 91.7441 30.0148 91.0021 28.5214C90.2602 27.0281 89.8892 25.0927 89.8892 22.7153C89.8892 20.5052 90.2333 18.6534 90.9214 17.1601C91.6094 15.6668 92.5997 14.5408 93.8921 13.7822C95.1845 13.0235 96.7462 12.6442 98.5771 12.6442ZM163.007 12.6405C164.766 12.6405 166.253 13.0198 167.468 13.7784C168.682 14.537 169.601 15.675 170.223 17.1922C170.845 18.7094 171.157 20.597 171.157 22.8549V24.1273L159.054 24.1273L159.057 24.1813C159.113 25.2772 159.307 26.1761 159.641 26.878C160.042 27.7202 160.692 28.3236 161.589 28.6879C162.487 29.0523 163.689 29.2345 165.197 29.2345C165.951 29.2345 166.741 29.1748 167.567 29.0553C168.392 28.9358 169.242 28.7686 170.115 28.5535V32.1555L169.518 32.2974C168.731 32.4752 167.975 32.607 167.252 32.6931C166.349 32.8006 165.448 32.8543 164.551 32.8543C162.241 32.8543 160.33 32.5049 158.816 31.806C157.302 31.1071 156.174 30.011 155.432 28.5177C154.69 27.0243 154.319 25.089 154.319 22.7116C154.319 20.5014 154.663 18.6497 155.351 17.1564C156.039 15.663 157.03 14.537 158.322 13.7784C159.615 13.0198 161.176 12.6405 163.007 12.6405ZM55.6001 5.63749C58.0174 5.63749 60.1236 6.12133 61.9186 7.08902C63.7136 8.0567 65.1078 9.54705 66.101 11.5601C67.0943 13.5731 67.5909 16.1327 67.5909 19.2388C67.5909 22.345 67.0943 24.9046 66.101 26.9176C65.1078 28.9306 63.7107 30.4209 61.9096 31.3886C60.1086 32.3563 58.0055 32.8402 55.6001 32.8402C53.1948 32.8402 51.0946 32.3563 49.2996 31.3886C47.5046 30.4209 46.1075 28.9336 45.1082 26.9265C44.109 24.9195 43.6094 22.3569 43.6094 19.2388C43.6094 16.1207 44.109 13.5582 45.1082 11.5511C46.1075 9.54407 47.5046 8.0567 49.2996 7.08902C51.0946 6.12133 53.1948 5.63749 55.6001 5.63749ZM208.365 12.6405C210.291 12.6405 211.88 12.8824 213.13 13.3663C214.381 13.8501 215.311 14.6625 215.922 15.8034C216.532 16.9443 216.837 18.4944 216.837 20.4537V32.4959H212.942L212.601 30.471H212.368L212.162 30.7302C211.596 31.4009 210.896 31.9089 210.061 32.254C209.122 32.6423 208.107 32.8364 207.018 32.8364C205.068 32.8364 203.545 32.3317 202.45 31.3222C201.355 30.3127 200.808 28.9717 200.808 27.2991C200.808 25.5071 201.421 24.1064 202.647 23.0969L202.69 23.0622C203.92 22.0735 205.883 21.4787 208.58 21.278L212.224 20.9315L212.224 20.1669L212.218 19.8443C212.187 19.0047 212.03 18.3328 211.748 17.8284C211.431 17.2609 210.929 16.8607 210.24 16.6277C209.552 16.3948 208.658 16.2783 207.557 16.2783C206.815 16.2783 205.971 16.344 205.026 16.4754C204.08 16.6068 203.159 16.8099 202.262 17.0847V13.4827L202.825 13.3258C203.59 13.127 204.41 12.9702 205.286 12.8555C206.381 12.7122 207.407 12.6405 208.365 12.6405ZM119.375 12.6442C120.643 12.6442 121.771 12.8891 122.758 13.379C123.745 13.8688 124.52 14.6543 125.083 15.7354C125.645 16.8166 125.926 18.2592 125.926 20.0631V32.4997H121.205V20.3319L121.2 20.0277C121.16 18.8401 120.874 18.0037 120.344 17.5185C119.769 16.9928 118.98 16.73 117.974 16.73C117.496 16.73 116.999 16.7957 116.485 16.9271C115.97 17.0585 115.473 17.2676 114.995 17.5543C114.516 17.8411 114.097 18.2174 113.738 18.6833V32.4997H109.017V12.9489H112.93L113.254 15.0097H113.487L113.775 14.7314C114.463 14.1016 115.246 13.6089 116.126 13.2535C117.131 12.8473 118.214 12.6442 119.375 12.6442ZM141.438 5.6696C145.148 5.6696 147.927 6.3416 149.776 7.68561C151.625 9.02961 152.549 11.1233 152.549 13.9666C152.549 15.8064 152.109 17.3475 151.23 18.59C150.35 19.8324 149.082 20.7673 147.424 21.3945L147.337 21.4272C147.161 21.492 146.981 21.5534 146.798 21.6113L146.796 21.6121L154.703 32.4959H149.39L142.105 22.3261L142.029 22.328C141.829 22.3328 141.626 22.3353 141.42 22.3353C140.81 22.3353 140.265 22.3233 139.786 22.2994C139.308 22.2755 138.811 22.2516 138.297 22.2277V32.4959H133.576V6.51184L134.15 6.3976C134.733 6.2856 135.344 6.18032 135.981 6.08176C136.831 5.95035 137.713 5.8488 138.629 5.77712C139.544 5.70544 140.481 5.6696 141.438 5.6696ZM198.373 3.53711V32.4959H193.652V3.53711H198.373ZM212.224 23.6962L209.029 23.9839L208.695 24.0209C207.611 24.1592 206.819 24.4455 206.318 24.8799C205.768 25.3578 205.493 26.0149 205.493 26.8511C205.493 27.6993 205.744 28.3504 206.246 28.8044C206.749 29.2584 207.491 29.4854 208.472 29.4854C209.119 29.4854 209.771 29.3599 210.429 29.1091L210.495 29.0834C211.127 28.8301 211.703 28.4205 212.224 27.8546L212.224 23.6962ZM78.8388 16.5329C78.1447 16.5329 77.4626 16.6673 76.7925 16.9361C76.1223 17.2049 75.5539 17.638 75.0872 18.2353V28.9515L75.3665 29.0036C75.656 29.054 75.9757 29.0993 76.3258 29.1397C76.7925 29.1934 77.2472 29.2203 77.69 29.2203C79.5568 29.2203 80.9599 28.7185 81.8993 27.715C82.8387 26.7115 83.3084 25.0509 83.3084 22.7332C83.3084 21.1204 83.1169 19.866 82.734 18.97C82.351 18.074 81.8245 17.4438 81.1544 17.0795C80.4842 16.7151 79.7124 16.5329 78.8388 16.5329ZM181.92 16.5292C181.226 16.5292 180.544 16.6636 179.873 16.9324C179.203 17.2012 178.635 17.6342 178.168 18.2316V28.9478L178.448 28.9998C178.737 29.0502 179.057 29.0956 179.407 29.1359C179.873 29.1897 180.328 29.2166 180.771 29.2166C182.638 29.2166 184.041 28.7148 184.98 27.7113C185.92 26.7078 186.389 25.0472 186.389 22.7295C186.389 21.1167 186.198 19.8623 185.815 18.9663C185.432 18.0703 184.906 17.4401 184.235 17.0757C183.565 16.7113 182.793 16.5292 181.92 16.5292ZM55.6001 9.56199C54.1641 9.56199 52.9166 9.87559 51.8575 10.5028C50.7984 11.13 49.9817 12.1455 49.4073 13.5492C48.8329 14.9529 48.5457 16.8136 48.5457 19.1313C48.5457 21.5206 48.8329 23.4321 49.4073 24.8657C49.9817 26.2993 50.7955 27.3327 51.8485 27.9659C52.9016 28.5991 54.1522 28.9157 55.6001 28.9157C57.0601 28.9157 58.3166 28.5991 59.3697 27.9659C60.4228 27.3327 61.2335 26.3143 61.8019 24.9105C62.3704 23.5068 62.6546 21.6521 62.6546 19.3463C62.6546 16.9689 62.3674 15.0634 61.793 13.6298C61.2186 12.1962 60.4048 11.1599 59.3517 10.5207C58.2987 9.88156 57.0481 9.56199 55.6001 9.56199ZM98.5233 15.7265C97.6976 15.7265 96.9915 15.9117 96.4052 16.282C95.8188 16.6524 95.373 17.2736 95.0679 18.1457L95.0486 18.2018C94.7881 18.9739 94.6436 19.9778 94.6153 21.2135L94.6135 21.2997H102.307L102.306 21.2314C102.279 19.9656 102.137 18.943 101.88 18.1636C101.593 17.2915 101.168 16.6673 100.606 16.291C100.043 15.9147 99.349 15.7265 98.5233 15.7265ZM162.953 15.7228C162.128 15.7228 161.422 15.9079 160.835 16.2783C160.249 16.6486 159.803 17.2699 159.498 18.142L159.479 18.198C159.218 18.9701 159.074 19.974 159.045 21.2098L159.044 21.296H166.737L166.736 21.2277C166.709 19.9618 166.567 18.9392 166.31 18.1599C166.023 17.2878 165.598 16.6636 165.036 16.2872C164.473 15.9109 163.779 15.7228 162.953 15.7228ZM141.905 9.25361C141.187 9.25361 140.543 9.28348 139.975 9.34321C139.407 9.40295 138.847 9.4806 138.297 9.57617V18.5541L138.671 18.588C138.914 18.6092 139.145 18.6278 139.365 18.6437C139.694 18.6676 140.029 18.6855 140.37 18.6975C140.711 18.7094 141.085 18.7154 141.492 18.7154C143.741 18.7154 145.393 18.3361 146.446 17.5775C147.499 16.8189 148.026 15.6152 148.026 13.9666C148.026 12.8675 147.807 11.9715 147.37 11.2786C146.934 10.5857 146.264 10.0749 145.36 9.74641C144.457 9.41788 143.305 9.25361 141.905 9.25361Z" fill="white"/>
</g>
<defs>
<clipPath id="clip0_2226_7367">
<rect width="239" height="40" fill="white" transform="translate(0 0.953125)"/>
</clipPath>
</defs>
</svg>
