<svg width="40" height="41" viewBox="0 0 40 41" fill="none" xmlns="http://www.w3.org/2000/svg">
<mask id="mask0_2226_11966" style="mask-type:alpha" maskUnits="userSpaceOnUse" x="0" y="0" width="40" height="41">
<rect y="0.975098" width="40" height="40" fill="#D9D9D9"/>
</mask>
<g mask="url(#mask0_2226_11966)">
<path d="M8.14062 37.8341V30.7824H11.6665V24.5007H8.14062V17.4491H11.6665V11.1674H8.14062V4.11572H16.859V11.1674H13.3331V17.4491H16.859V20.1416H24.8073V17.4491H33.5256V24.5007H24.8073V21.8082H16.859V24.5007H13.3331V30.7824H16.859V37.8341H8.14062ZM9.80729 36.1674H15.1923V32.4491H9.80729V36.1674ZM9.80729 22.8341H15.1923V19.1157H9.80729V22.8341ZM26.474 22.8341H31.859V19.1157H26.474V22.8341ZM9.80729 9.50072H15.1923V5.78239H9.80729V9.50072Z" fill="#4CEC8C"/>
</g>
</svg>
