<svg width="40" height="41" viewBox="0 0 40 41" fill="none" xmlns="http://www.w3.org/2000/svg">
<mask id="mask0_2226_11970" style="mask-type:alpha" maskUnits="userSpaceOnUse" x="0" y="0" width="40" height="41">
<rect y="0.975098" width="40" height="40" fill="#D9D9D9"/>
</mask>
<g mask="url(#mask0_2226_11970)">
<path d="M20.0054 35.9751C17.9312 35.9751 15.9811 35.5815 14.155 34.7943C12.3292 34.007 10.7408 32.9387 9.39 31.5893C8.03917 30.2398 6.96986 28.6529 6.18208 26.8284C5.39403 25.0043 5 23.055 5 20.9805C5 18.9063 5.39361 16.9562 6.18083 15.1301C6.96806 13.3043 8.03639 11.7159 9.38583 10.3651C10.7353 9.01426 12.3222 7.94496 14.1467 7.15718C15.9708 6.36913 17.9201 5.9751 19.9946 5.9751C22.0688 5.9751 24.0189 6.36871 25.845 7.15593C27.6708 7.94315 29.2592 9.01149 30.61 10.3609C31.9608 11.7104 33.0301 13.2973 33.8179 15.1218C34.606 16.9459 35 18.8952 35 20.9697C35 23.0438 34.6064 24.994 33.8192 26.8201C33.0319 28.6459 31.9636 30.2343 30.6142 31.5851C29.2647 32.9359 27.6778 34.0052 25.8533 34.793C24.0292 35.5811 22.0799 35.9751 20.0054 35.9751ZM20 34.3084C23.7222 34.3084 26.875 33.0168 29.4583 30.4334C32.0417 27.8501 33.3333 24.6973 33.3333 20.9751C33.3333 17.2529 32.0417 14.1001 29.4583 11.5168C26.875 8.93343 23.7222 7.64176 20 7.64176C16.2778 7.64176 13.125 8.93343 10.5417 11.5168C7.95833 14.1001 6.66667 17.2529 6.66667 20.9751C6.66667 24.6973 7.95833 27.8501 10.5417 30.4334C13.125 33.0168 16.2778 34.3084 20 34.3084ZM20.0075 29.3084C17.6947 29.3084 15.7264 28.499 14.1025 26.8801C12.4786 25.2612 11.6667 23.2954 11.6667 20.9826C11.6667 18.6698 12.4761 16.7015 14.095 15.0776C15.7139 13.4537 17.6797 12.6418 19.9925 12.6418C22.3053 12.6418 24.2736 13.4512 25.8975 15.0701C27.5214 16.689 28.3333 18.6548 28.3333 20.9676C28.3333 23.2804 27.5239 25.2487 25.905 26.8726C24.2861 28.4965 22.3203 29.3084 20.0075 29.3084ZM20 27.6418C21.8333 27.6418 23.4028 26.989 24.7083 25.6834C26.0139 24.3779 26.6667 22.8084 26.6667 20.9751C26.6667 19.1418 26.0139 17.5723 24.7083 16.2668C23.4028 14.9612 21.8333 14.3084 20 14.3084C18.1667 14.3084 16.5972 14.9612 15.2917 16.2668C13.9861 17.5723 13.3333 19.1418 13.3333 20.9751C13.3333 22.8084 13.9861 24.3779 15.2917 25.6834C16.5972 26.989 18.1667 27.6418 20 27.6418ZM20 22.6418C19.5533 22.6418 19.1639 22.4757 18.8317 22.1434C18.4994 21.8112 18.3333 21.4218 18.3333 20.9751C18.3333 20.5284 18.4994 20.139 18.8317 19.8068C19.1639 19.4745 19.5533 19.3084 20 19.3084C20.4467 19.3084 20.8361 19.4745 21.1683 19.8068C21.5006 20.139 21.6667 20.5284 21.6667 20.9751C21.6667 21.4218 21.5006 21.8112 21.1683 22.1434C20.8361 22.4757 20.4467 22.6418 20 22.6418Z" fill="#4CEC8C"/>
</g>
</svg>
