<svg width="48" height="49" viewBox="0 0 48 49" fill="none" xmlns="http://www.w3.org/2000/svg">
<g clip-path="url(#clip0_2186_152610)">
<path d="M17.0022 2.88C17.0022 1.28942 15.7128 0 14.1222 0C12.5316 0 11.2422 1.28942 11.2422 2.88C11.2422 4.47058 12.5316 5.76 14.1222 5.76C15.7128 5.76 17.0022 4.47058 17.0022 2.88Z" fill="#4CEC8C"/>
<path d="M6.27 26.4101H3.14V1.31006H0V29.5501H6.27V45.2301H3.14V33.1601H0V48.3701H9.41V1.31006H6.27V26.4101Z" fill="white"/>
<path d="M15.69 7.34006H12.55V23.2801H15.69V7.34006Z" fill="white"/>
<path d="M21.96 4.45006H25.1V23.2701H28.23V1.31006H18.82V23.2701H21.96V4.45006Z" fill="white"/>
<path d="M31.37 35.8201H28.23V26.4101H25.1V45.2301H15.92L23.3 26.4101H12.55V29.5501H18.7L11.32 48.3701H28.23V38.9601H31.37V48.3701H34.51V1.31006H31.37V35.8201Z" fill="white"/>
<path d="M43.92 1.31006V45.2301H40.78V1.31006H37.65V48.3701H47.06V1.31006H43.92Z" fill="white"/>
</g>
<defs>
<clipPath id="clip0_2186_152610">
<rect width="47.06" height="48.37" fill="white"/>
</clipPath>
</defs>
</svg>
