<svg width="48" height="49" viewBox="0 0 48 49" fill="none" xmlns="http://www.w3.org/2000/svg">
<g opacity="0.3" clip-path="url(#clip0_2278_6899)">
<path d="M17.4709 2.88C17.4709 1.28942 16.1815 0 14.5909 0C13.0004 0 11.7109 1.28942 11.7109 2.88C11.7109 4.47058 13.0004 5.76 14.5909 5.76C16.1815 5.76 17.4709 4.47058 17.4709 2.88Z" fill="#4CEC8C"/>
<path d="M6.73875 26.4101H3.60875V1.31006H0.46875V29.5501H6.73875V45.2301H3.60875V33.1601H0.46875V48.3701H9.87875V1.31006H6.73875V26.4101Z" fill="white"/>
<path d="M16.1587 7.34006H13.0188V23.2801H16.1587V7.34006Z" fill="white"/>
<path d="M22.4287 4.45006H25.5688V23.2701H28.6987V1.31006H19.2887V23.2701H22.4287V4.45006Z" fill="white"/>
<path d="M31.8388 35.8201H28.6987V26.4101H25.5688V45.2301H16.3888L23.7687 26.4101H13.0188V29.5501H19.1688L11.7887 48.3701H28.6987V38.9601H31.8388V48.3701H34.9787V1.31006H31.8388V35.8201Z" fill="white"/>
<path d="M44.3887 1.31006V45.2301H41.2487V1.31006H38.1188V48.3701H47.5288V1.31006H44.3887Z" fill="white"/>
</g>
<defs>
<clipPath id="clip0_2278_6899">
<rect width="47.06" height="48.37" fill="white" transform="translate(0.46875)"/>
</clipPath>
</defs>
</svg>
